<svg xmlns="http://www.w3.org/2000/svg" xmlns:xlink="http://www.w3.org/1999/xlink" width="500" zoomAndPan="magnify" viewBox="0 0 375 374.999991" height="500" preserveAspectRatio="xMidYMid meet" version="1.0"><defs><clipPath id="id1"><path d="M 0 20.113281 L 336 20.113281 L 336 354.613281 L 0 354.613281 Z M 0 20.113281 " clip-rule="nonzero"/></clipPath></defs><g clip-path="url(#id1)"><path fill="#e7f6f2" d="M 50.914062 42.410156 L 85.277344 42.410156 L 85.277344 20.113281 L 50.914062 20.113281 C 41.394531 20.113281 32.128906 22.789062 24.117188 27.851562 L 36.039062 46.695312 C 40.480469 43.890625 45.621094 42.410156 50.914062 42.410156 Z M 23.019531 70.28125 C 23.019531 66.207031 23.875 62.285156 25.5625 58.628906 L 5.300781 49.292969 C 2.25 55.898438 0.707031 62.960938 0.707031 70.28125 L 0.707031 109.742188 L 23.019531 109.742188 Z M 0.707031 132.261719 L 23.019531 132.261719 L 23.019531 188.441406 L 0.707031 188.441406 Z M 301.179688 47.40625 C 307.910156 43.148438 314.605469 39.128906 321.246094 35.367188 C 317.453125 31.460938 313.03125 28.164062 308.199219 25.675781 C 301.152344 22.035156 293.199219 20.113281 285.203125 20.113281 L 265.457031 20.113281 L 265.457031 42.410156 L 285.203125 42.410156 C 291.054688 42.410156 296.570312 44.175781 301.179688 47.40625 Z M 0.707031 210.964844 L 23.019531 210.964844 L 23.019531 267.265625 L 0.707031 267.265625 Z M 107.8125 20.109375 L 164.046875 20.109375 L 164.046875 42.40625 L 107.8125 42.40625 Z M 186.582031 20.109375 L 242.925781 20.109375 L 242.925781 42.40625 L 186.582031 42.40625 Z M 211.460938 332.253906 L 267.691406 332.253906 L 267.691406 354.550781 L 211.460938 354.550781 Z M 313.105469 146.75 L 335.417969 146.75 L 335.417969 203.050781 L 313.105469 203.050781 Z M 313.105469 225.5625 L 335.417969 225.5625 L 335.417969 281.746094 L 313.105469 281.746094 Z M 23.019531 304.375 L 23.019531 289.78125 L 0.707031 289.78125 L 0.707031 304.375 C 0.707031 322.648438 10.648438 339.472656 26.65625 348.308594 L 37.449219 328.800781 C 28.546875 323.886719 23.019531 314.523438 23.019531 304.375 Z M 313.105469 109.449219 L 313.105469 124.234375 L 335.417969 124.234375 L 335.417969 91.121094 C 328.078125 96.578125 320.632812 102.695312 313.105469 109.449219 Z M 313.105469 304.375 C 313.105469 318.359375 302.671875 330.242188 288.820312 332.023438 L 291.667969 354.144531 C 303.675781 352.597656 314.738281 346.734375 322.792969 337.636719 C 330.9375 328.464844 335.417969 316.652344 335.417969 304.375 L 335.417969 304.273438 L 313.105469 304.273438 Z M 53.695312 332.253906 L 110.039062 332.253906 L 110.039062 354.550781 L 53.695312 354.550781 Z M 132.574219 332.253906 L 188.921875 332.253906 L 188.921875 354.550781 L 132.574219 354.550781 Z M 132.574219 332.253906 " fill-opacity="1" fill-rule="nonzero"/></g><path fill="#a5c9ca" d="M 51.804688 197.628906 L 156.476562 302.207031 C 156.476562 302.207031 261.136719 101.011719 374.292969 55.882812 L 370.046875 24.035156 C 308.417969 48.457031 214.90625 112.691406 145.835938 210.898438 L 73.058594 167.898438 L 51.804688 197.628906 " fill-opacity="1" fill-rule="nonzero"/></svg>